<mxfile host="app.diagrams.net" modified="2021-03-29T12:40:00.903Z" agent="5.0 (Windows NT 10.0; Win64; x64) AppleWebKit/537.36 (KHTML, like Gecko) Chrome/89.0.4389.90 Safari/537.36" etag="6ywqbxBAmyvoX_ZmGWtU" version="14.5.3" type="github">
  <diagram id="D-32_8k2yRWWIxIoKpbx" name="Page-1">
    <mxGraphModel dx="2062" dy="839" grid="1" gridSize="10" guides="1" tooltips="1" connect="1" arrows="1" fold="1" page="1" pageScale="1" pageWidth="827" pageHeight="1169" math="0" shadow="0">
      <root>
        <mxCell id="0" />
        <mxCell id="1" parent="0" />
        <mxCell id="o4jxc6FHaqI-eXNhZTG6-3" value="" style="edgeStyle=orthogonalEdgeStyle;rounded=0;orthogonalLoop=1;jettySize=auto;html=1;" edge="1" parent="1" source="o4jxc6FHaqI-eXNhZTG6-1" target="o4jxc6FHaqI-eXNhZTG6-2">
          <mxGeometry relative="1" as="geometry" />
        </mxCell>
        <mxCell id="o4jxc6FHaqI-eXNhZTG6-1" value="" style="rounded=0;whiteSpace=wrap;html=1;" vertex="1" parent="1">
          <mxGeometry x="340" y="370" width="230" height="100" as="geometry" />
        </mxCell>
        <mxCell id="o4jxc6FHaqI-eXNhZTG6-2" value="" style="rounded=1;whiteSpace=wrap;html=1;" vertex="1" parent="1">
          <mxGeometry x="400" y="490" width="120" height="60" as="geometry" />
        </mxCell>
        <mxCell id="o4jxc6FHaqI-eXNhZTG6-9" style="edgeStyle=orthogonalEdgeStyle;rounded=0;orthogonalLoop=1;jettySize=auto;html=1;exitX=0.5;exitY=1;exitDx=0;exitDy=0;" edge="1" parent="1" source="o4jxc6FHaqI-eXNhZTG6-4" target="o4jxc6FHaqI-eXNhZTG6-1">
          <mxGeometry relative="1" as="geometry" />
        </mxCell>
        <mxCell id="o4jxc6FHaqI-eXNhZTG6-4" value="" style="rounded=0;whiteSpace=wrap;html=1;" vertex="1" parent="1">
          <mxGeometry x="400" y="230" width="120" height="60" as="geometry" />
        </mxCell>
        <mxCell id="o4jxc6FHaqI-eXNhZTG6-11" style="edgeStyle=orthogonalEdgeStyle;rounded=0;orthogonalLoop=1;jettySize=auto;html=1;exitX=0.5;exitY=1;exitDx=0;exitDy=0;entryX=0;entryY=0.5;entryDx=0;entryDy=0;" edge="1" parent="1" source="o4jxc6FHaqI-eXNhZTG6-5" target="o4jxc6FHaqI-eXNhZTG6-1">
          <mxGeometry relative="1" as="geometry" />
        </mxCell>
        <mxCell id="o4jxc6FHaqI-eXNhZTG6-5" value="" style="rounded=0;whiteSpace=wrap;html=1;" vertex="1" parent="1">
          <mxGeometry x="220" y="230" width="120" height="60" as="geometry" />
        </mxCell>
        <mxCell id="o4jxc6FHaqI-eXNhZTG6-10" style="edgeStyle=orthogonalEdgeStyle;rounded=0;orthogonalLoop=1;jettySize=auto;html=1;exitX=0.5;exitY=1;exitDx=0;exitDy=0;entryX=1;entryY=0.5;entryDx=0;entryDy=0;" edge="1" parent="1" source="o4jxc6FHaqI-eXNhZTG6-6" target="o4jxc6FHaqI-eXNhZTG6-1">
          <mxGeometry relative="1" as="geometry" />
        </mxCell>
        <mxCell id="o4jxc6FHaqI-eXNhZTG6-6" value="" style="rounded=0;whiteSpace=wrap;html=1;" vertex="1" parent="1">
          <mxGeometry x="580" y="230" width="120" height="60" as="geometry" />
        </mxCell>
        <mxCell id="o4jxc6FHaqI-eXNhZTG6-12" value="&lt;h1&gt;Heading&lt;/h1&gt;&lt;p&gt;Lorem ipsum dolor sit amet, consectetur adipisicing elit, sed do eiusmod tempor incididunt ut labore et dolore magna aliqua.&lt;/p&gt;" style="text;html=1;strokeColor=none;fillColor=none;spacing=5;spacingTop=-20;whiteSpace=wrap;overflow=hidden;rounded=0;" vertex="1" parent="1">
          <mxGeometry x="350" y="370" width="230" height="90" as="geometry" />
        </mxCell>
      </root>
    </mxGraphModel>
  </diagram>
</mxfile>
